<svg width="80" height="80" viewBox="0 0 80 80" fill="none" xmlns="http://www.w3.org/2000/svg">
<g filter="url(#filter0_d)">
<rect x="8" y="4" width="64" height="64" rx="32" fill="white"/>
</g>
<path fill-rule="evenodd" clip-rule="evenodd" d="M40.2085 20L48.1263 32.3963L40.208 37.0118L32.2907 32.3962L40.2085 20ZM34.7145 31.81L40.2085 23.2086L45.7025 31.8101L40.2081 35.0126L34.7145 31.81Z" fill="#00A3FF"/>
<path d="M40.1967 39.7365L31.0118 34.3819L30.761 34.7746C27.932 39.2037 28.5638 45.0041 32.2799 48.7203C36.6529 53.0932 43.7429 53.0932 48.1159 48.7203C51.832 45.0041 52.4638 39.2037 49.6349 34.7746L49.384 34.3818L40.1971 39.7368L40.1967 39.7365Z" fill="#00A3FF"/>
<defs>
<filter id="filter0_d" x="0" y="0" width="80" height="80" filterUnits="userSpaceOnUse" color-interpolation-filters="sRGB">
<feFlood flood-opacity="0" result="BackgroundImageFix"/>
<feColorMatrix in="SourceAlpha" type="matrix" values="0 0 0 0 0 0 0 0 0 0 0 0 0 0 0 0 0 0 127 0"/>
<feOffset dy="4"/>
<feGaussianBlur stdDeviation="4"/>
<feColorMatrix type="matrix" values="0 0 0 0 0 0 0 0 0 0 0 0 0 0 0 0 0 0 0.08 0"/>
<feBlend mode="normal" in2="BackgroundImageFix" result="effect1_dropShadow"/>
<feBlend mode="normal" in="SourceGraphic" in2="effect1_dropShadow" result="shape"/>
</filter>
</defs>
</svg>
