<svg width="512" height="512" viewBox="0 0 512 512" fill="none" xmlns="http://www.w3.org/2000/svg">
<rect width="512" height="512" rx="256" fill="#F4F6F8"/>
<path d="M345.914 196.62H109.939C109.356 196.611 108.788 196.432 108.305 196.104C107.823 195.776 107.447 195.313 107.225 194.774C107.003 194.234 106.944 193.641 107.055 193.069C107.167 192.496 107.444 191.969 107.853 191.552L159.722 139.623C161.426 137.953 163.715 137.012 166.101 137H402.075C402.659 137.008 403.227 137.187 403.71 137.516C404.192 137.844 404.568 138.306 404.79 138.846C405.012 139.385 405.071 139.978 404.959 140.551C404.848 141.124 404.57 141.651 404.162 142.068L352.293 193.996C350.588 195.667 348.3 196.607 345.914 196.62Z" fill="url(#paint0_linear)"/>
<path d="M345.913 375.478H109.939C109.356 375.47 108.787 375.291 108.305 374.963C107.822 374.635 107.447 374.172 107.225 373.633C107.002 373.093 106.943 372.5 107.055 371.927C107.167 371.355 107.444 370.827 107.852 370.411L159.721 318.482C161.426 316.812 163.714 315.871 166.101 315.859H402.075C402.658 315.867 403.227 316.046 403.709 316.374C404.192 316.702 404.567 317.165 404.789 317.704C405.012 318.244 405.071 318.837 404.959 319.41C404.847 319.982 404.57 320.51 404.162 320.926L352.293 372.855C350.588 374.525 348.3 375.466 345.913 375.478Z" fill="url(#paint1_linear)"/>
<path d="M402.075 286.049H166.101C163.714 286.037 161.426 285.096 159.721 283.426L107.852 231.497C107.444 231.08 107.167 230.553 107.055 229.98C106.943 229.408 107.002 228.815 107.225 228.275C107.447 227.736 107.822 227.273 108.305 226.945C108.787 226.617 109.356 226.438 109.939 226.429H345.913C348.3 226.442 350.588 227.382 352.293 229.053L404.162 280.981C404.57 281.398 404.847 281.925 404.959 282.498C405.071 283.071 405.012 283.664 404.789 284.203C404.567 284.743 404.192 285.205 403.709 285.533C403.227 285.862 402.658 286.041 402.075 286.049Z" fill="url(#paint2_linear)"/>
<defs>
<linearGradient id="paint0_linear" x1="405.014" y1="136.99" x2="109.595" y2="378.161" gradientUnits="userSpaceOnUse">
<stop stop-color="#00A3FF"/>
<stop offset="1" stop-color="#3ADCFF"/>
</linearGradient>
<linearGradient id="paint1_linear" x1="405.014" y1="136.99" x2="109.595" y2="378.161" gradientUnits="userSpaceOnUse">
<stop stop-color="#00A3FF"/>
<stop offset="1" stop-color="#3ADCFF"/>
</linearGradient>
<linearGradient id="paint2_linear" x1="405.014" y1="136.99" x2="109.595" y2="378.161" gradientUnits="userSpaceOnUse">
<stop stop-color="#00A3FF"/>
<stop offset="1" stop-color="#3ADCFF"/>
</linearGradient>
</defs>
</svg>
